# xmcd
#
# Track frame offsets: 
#        150
#        16611
#        28265
#        39556
#        52467
#        62818
#        74872
#        87435
#        100406
#        113350
#        127755
#        142835
#        159441
#        181648
#        195755
#
# Disc length: 2836 seconds
#
# Revision: 1
# Processed by: cddbd v1.5.2PL0 Copyright (c) Steve Scherf et al.
# Submitted via: ExactAudioCopy v1.3
#
DISCID=c20b120f
DTITLE=Johnny Cash - Cash The Legend
DYEAR=2009
DGENRE=Country
TTITLE0=A Boy Name Sue
TTITLE1=Bog River
TTITLE2=Cry Cry Cry
TTITLE3=Folsom Prison Blues
TTITLE4=Get Rhythm
TTITLE5=Home of th eBlues
TTITLE6=I Walk The Line
TTITLE7=Jackson
TTITLE8=Ring Of Fire
TTITLE9=Rock Island Line
TTITLE10=Jester - Heard It All Before
TTITLE11=Jester - Always Thinking Of You
TTITLE12=Jester - Hero
TTITLE13=Jester - Get Ready For The Ride
TTITLE14=Jester - Comes Back To You
EXTD=
EXTT0=
EXTT1=
EXTT2=
EXTT3=
EXTT4=
EXTT5=
EXTT6=
EXTT7=
EXTT8=
EXTT9=
EXTT10=
EXTT11=
EXTT12=
EXTT13=
EXTT14=
PLAYORDER=
